<svg width="22" height="22" viewBox="0 0 22 22" fill="none" xmlns="http://www.w3.org/2000/svg">
<path d="M12.4697 9.46974L11.5586 9.05768C11.3871 9.43686 11.4684 9.88259 11.7626 10.1768L12.4697 9.46974ZM4.41317 1.58474L3.9815 0.682711C3.68879 0.822787 3.48225 1.09618 3.4275 1.41603C3.37276 1.73587 3.47661 2.0624 3.70606 2.29185L4.41317 1.58474ZM8.77817 5.94975L9.48528 6.65685C9.87581 6.26633 9.87581 5.63317 9.48528 5.24264L8.77817 5.94975ZM5.94975 8.77817L5.24264 9.48528C5.63317 9.87581 6.26633 9.87581 6.65685 9.48528L5.94975 8.77817ZM1.58474 4.41317L2.29185 3.70606C2.0624 3.47661 1.73587 3.37276 1.41603 3.4275C1.09618 3.48225 0.822787 3.68879 0.682711 3.9815L1.58474 4.41317ZM8.74293 12.7429L9.45004 12.0358C9.18919 11.775 8.80591 11.6789 8.45287 11.7859L8.74293 12.7429ZM16.0858 20.0858L16.7929 19.3787L16.7929 19.3787L16.0858 20.0858ZM12 7C12 7.73551 11.8418 8.43138 11.5586 9.05768L13.3809 9.8818C13.7789 9.00167 14 8.0253 14 7H12ZM7 2C9.76142 2 12 4.23858 12 7H14C14 3.13401 10.866 0 7 0V2ZM4.84484 2.48677C5.49622 2.17505 6.22627 2 7 2V0C5.92115 0 4.89666 0.244758 3.9815 0.682711L4.84484 2.48677ZM9.48528 5.24264L5.12028 0.877635L3.70606 2.29185L8.07107 6.65685L9.48528 5.24264ZM6.65685 9.48528L9.48528 6.65685L8.07107 5.24264L5.24264 8.07107L6.65685 9.48528ZM0.877635 5.12028L5.24264 9.48528L6.65685 8.07107L2.29185 3.70606L0.877635 5.12028ZM2 7C2 6.22627 2.17505 5.49622 2.48677 4.84484L0.682711 3.9815C0.244758 4.89666 0 5.92115 0 7H2ZM7 12C4.23858 12 2 9.76142 2 7H0C0 10.866 3.13401 14 7 14V12ZM8.45287 11.7859C7.99431 11.9249 7.50683 12 7 12V14C7.70552 14 8.38839 13.8953 9.03299 13.6999L8.45287 11.7859ZM16.7929 19.3787L9.45004 12.0358L8.03582 13.45L15.3787 20.7929L16.7929 19.3787ZM18.2071 19.3787C17.8166 19.7692 17.1834 19.7692 16.7929 19.3787L15.3787 20.7929C16.5503 21.9645 18.4497 21.9645 19.6213 20.7929L18.2071 19.3787ZM18.8787 18.7071L18.2071 19.3787L19.6213 20.7929L20.2929 20.1213L18.8787 18.7071ZM18.8787 17.2929C19.2692 17.6834 19.2692 18.3166 18.8787 18.7071L20.2929 20.1213C21.4645 18.9497 21.4645 17.0502 20.2929 15.8787L18.8787 17.2929ZM11.7626 10.1768L18.8787 17.2929L20.2929 15.8787L13.1768 8.76264L11.7626 10.1768Z" fill="#B00E23"/>
</svg>
