<svg width="9" height="9" viewBox="0 0 9 9" fill="none" xmlns="http://www.w3.org/2000/svg">
<path d="M5.33653 6.04339C5.53179 6.23865 5.84837 6.23865 6.04364 6.04339C6.2389 5.84813 6.2389 5.53155 6.04364 5.33629L5.33653 6.04339ZM3.39199 2.68464C3.19672 2.48937 2.88014 2.48937 2.68488 2.68464C2.48962 2.8799 2.48962 3.19648 2.68488 3.39174L3.39199 2.68464ZM2.68488 5.33629C2.48962 5.53155 2.48962 5.84813 2.68488 6.04339C2.88014 6.23865 3.19672 6.23865 3.39199 6.04339L2.68488 5.33629ZM6.04364 3.39174C6.2389 3.19648 6.2389 2.8799 6.04364 2.68464C5.84837 2.48937 5.53179 2.48937 5.33653 2.68464L6.04364 3.39174ZM6.04364 5.33629L3.39199 2.68464L2.68488 3.39174L5.33653 6.04339L6.04364 5.33629ZM3.39199 6.04339L6.04364 3.39174L5.33653 2.68464L2.68488 5.33629L3.39199 6.04339ZM1.35905 7.36922C3.01878 9.02895 5.70973 9.02895 7.36946 7.36922L6.66235 6.66211C5.39315 7.93131 3.33536 7.93131 2.06616 6.66211L1.35905 7.36922ZM7.36946 7.36922C9.02919 5.70949 9.02919 3.01854 7.36946 1.35881L6.66235 2.06592C7.93156 3.33512 7.93156 5.39291 6.66235 6.66211L7.36946 7.36922ZM7.36946 1.35881C5.70973 -0.300918 3.01878 -0.300918 1.35905 1.35881L2.06616 2.06592C3.33536 0.796713 5.39315 0.796713 6.66235 2.06592L7.36946 1.35881ZM1.35905 1.35881C-0.300674 3.01854 -0.300674 5.70949 1.35905 7.36922L2.06616 6.66211C0.796957 5.39291 0.796957 3.33512 2.06616 2.06592L1.35905 1.35881Z" fill="#8E8E8E"/>
</svg>
