<svg width="62" height="62" viewBox="0 0 62 62" fill="none" xmlns="http://www.w3.org/2000/svg">
<circle cx="31" cy="31" r="31" fill="#C4C4C4"/>
<path fill-rule="evenodd" clip-rule="evenodd" d="M20.6165 40.4878C25.2833 40.6666 29.2793 37.3797 30.1229 32.926C30.2923 33.0014 30.4786 33.0464 30.6753 33.054L38.936 33.3704L38.7691 37.7273C38.7374 38.5551 39.3828 39.2519 40.2106 39.2836C41.0384 39.3154 41.7352 38.67 41.7669 37.8422L41.9338 33.4853L46.7438 33.6695L46.5021 39.9784C46.4704 40.8062 47.1158 41.503 47.9436 41.5347C48.7714 41.5664 49.4682 40.921 49.4999 40.0932L49.799 32.2854L49.8564 30.7865L48.3575 30.7291L40.5498 30.43L30.7901 30.0562C30.5935 30.0486 30.4042 30.0793 30.2295 30.1415C29.7292 25.6363 25.9963 22.0533 21.3295 21.8746C16.1896 21.6777 11.8632 25.6848 11.6663 30.8247C11.4695 35.9646 15.4766 40.2909 20.6165 40.4878ZM21.2147 24.8724C17.7304 24.7389 14.7976 27.4552 14.6642 30.9395C14.5307 34.4238 17.247 37.3566 20.7313 37.49C24.2156 37.6235 27.1484 34.9072 27.2818 31.4229C27.4153 27.9386 24.6989 25.0058 21.2147 24.8724Z" fill="white"/>
<path d="M30.1229 32.926L30.3262 32.4692L29.7492 32.2123L29.6316 32.8329L30.1229 32.926ZM20.6165 40.4878L20.6356 39.9882L20.6356 39.9882L20.6165 40.4878ZM30.6753 33.054L30.6944 32.5543L30.6944 32.5543L30.6753 33.054ZM38.936 33.3704L39.4357 33.3896L39.4548 32.8899L38.9552 32.8708L38.936 33.3704ZM38.7691 37.7273L38.2695 37.7082L38.2695 37.7082L38.7691 37.7273ZM40.2106 39.2836L40.1915 39.7833L40.1915 39.7833L40.2106 39.2836ZM41.7669 37.8422L41.2673 37.823L41.2673 37.823L41.7669 37.8422ZM41.9338 33.4853L41.953 32.9856L41.4533 32.9665L41.4342 33.4661L41.9338 33.4853ZM46.7438 33.6695L47.2434 33.6886L47.2626 33.189L46.7629 33.1699L46.7438 33.6695ZM46.5021 39.9784L46.0025 39.9592L46.0025 39.9592L46.5021 39.9784ZM47.9436 41.5347L47.9245 42.0343L47.9245 42.0343L47.9436 41.5347ZM49.4999 40.0932L49.0003 40.0741L49.0003 40.0741L49.4999 40.0932ZM49.799 32.2854L49.2994 32.2663L49.2994 32.2663L49.799 32.2854ZM49.8564 30.7865L50.3561 30.8057L50.3752 30.3061L49.8756 30.2869L49.8564 30.7865ZM48.3575 30.7291L48.3767 30.2295L48.3767 30.2295L48.3575 30.7291ZM40.5498 30.43L40.5306 30.9297L40.5306 30.9297L40.5498 30.43ZM30.7901 30.0562L30.771 30.5558L30.771 30.5558L30.7901 30.0562ZM30.2295 30.1415L29.7326 30.1967L29.8023 30.8245L30.3974 30.6125L30.2295 30.1415ZM21.3295 21.8746L21.3486 21.3749L21.3486 21.3749L21.3295 21.8746ZM11.6663 30.8247L12.166 30.8438L11.6663 30.8247ZM14.6642 30.9395L15.1638 30.9587L15.1638 30.9587L14.6642 30.9395ZM21.2147 24.8724L21.2338 24.3727L21.2338 24.3727L21.2147 24.8724ZM20.7313 37.49L20.7505 36.9904L20.7505 36.9904L20.7313 37.49ZM27.2818 31.4229L27.7815 31.442L27.7815 31.442L27.2818 31.4229ZM29.6316 32.8329C28.8334 37.0472 25.0514 40.1574 20.6356 39.9882L20.5973 40.9875C25.5151 41.1759 29.7252 37.7123 30.6141 33.019L29.6316 32.8329ZM30.6944 32.5543C30.5624 32.5493 30.4385 32.5192 30.3262 32.4692L29.9195 33.3827C30.1461 33.4836 30.3949 33.5436 30.6561 33.5536L30.6944 32.5543ZM38.9552 32.8708L30.6944 32.5543L30.6561 33.5536L38.9169 33.87L38.9552 32.8708ZM39.2688 37.7465L39.4357 33.3896L38.4364 33.3513L38.2695 37.7082L39.2688 37.7465ZM40.2298 38.784C39.6779 38.7629 39.2476 38.2983 39.2688 37.7465L38.2695 37.7082C38.2272 38.8119 39.0877 39.741 40.1915 39.7833L40.2298 38.784ZM41.2673 37.823C41.2462 38.3749 40.7816 38.8051 40.2298 38.784L40.1915 39.7833C41.2952 39.8256 42.2243 38.9651 42.2666 37.8613L41.2673 37.823ZM41.4342 33.4661L41.2673 37.823L42.2666 37.8613L42.4335 33.5044L41.4342 33.4661ZM46.7629 33.1699L41.953 32.9856L41.9147 33.9849L46.7246 34.1691L46.7629 33.1699ZM47.0017 39.9975L47.2434 33.6886L46.2442 33.6504L46.0025 39.9592L47.0017 39.9975ZM47.9627 41.035C47.4109 41.0139 46.9806 40.5494 47.0017 39.9975L46.0025 39.9592C45.9602 41.063 46.8207 41.992 47.9245 42.0343L47.9627 41.035ZM49.0003 40.0741C48.9791 40.6259 48.5146 41.0562 47.9627 41.035L47.9245 42.0343C49.0282 42.0766 49.9573 41.2161 49.9995 40.1123L49.0003 40.0741ZM49.2994 32.2663L49.0003 40.0741L49.9995 40.1123L50.2986 32.3046L49.2994 32.2663ZM49.3568 30.7674L49.2994 32.2663L50.2986 32.3046L50.3561 30.8057L49.3568 30.7674ZM48.3384 31.2288L49.8373 31.2862L49.8756 30.2869L48.3767 30.2295L48.3384 31.2288ZM40.5306 30.9297L48.3384 31.2288L48.3767 30.2295L40.5689 29.9304L40.5306 30.9297ZM30.771 30.5558L40.5306 30.9297L40.5689 29.9304L30.8092 29.5565L30.771 30.5558ZM30.3974 30.6125C30.5131 30.5713 30.639 30.5507 30.771 30.5558L30.8092 29.5565C30.548 29.5465 30.2953 29.5873 30.0617 29.6705L30.3974 30.6125ZM21.3104 22.3742C25.7262 22.5433 29.2592 25.9338 29.7326 30.1967L30.7265 30.0864C30.1992 25.3388 26.2664 21.5633 21.3486 21.3749L21.3104 22.3742ZM12.166 30.8438C12.3523 25.9798 16.4464 22.1879 21.3104 22.3742L21.3486 21.3749C15.9328 21.1675 11.3742 25.3897 11.1667 30.8055L12.166 30.8438ZM20.6356 39.9882C15.7716 39.8019 11.9797 35.7078 12.166 30.8438L11.1667 30.8055C10.9592 36.2214 15.1815 40.78 20.5973 40.9875L20.6356 39.9882ZM15.1638 30.9587C15.2867 27.7503 17.9872 25.2491 21.1955 25.372L21.2338 24.3727C17.4736 24.2287 14.3086 27.1602 14.1645 30.9204L15.1638 30.9587ZM20.7505 36.9904C17.5421 36.8675 15.0409 34.167 15.1638 30.9587L14.1645 30.9204C14.0205 34.6806 16.952 37.8456 20.7122 37.9897L20.7505 36.9904ZM26.7822 31.4037C26.6593 34.6121 23.9588 37.1133 20.7505 36.9904L20.7122 37.9897C24.4724 38.1337 27.6374 35.2022 27.7815 31.442L26.7822 31.4037ZM21.1955 25.372C24.4039 25.4949 26.9051 28.1954 26.7822 31.4037L27.7815 31.442C27.9255 27.6818 24.994 24.5168 21.2338 24.3727L21.1955 25.372Z" fill="black"/>
</svg>
