<svg width="62" height="62" viewBox="0 0 62 62" fill="none" xmlns="http://www.w3.org/2000/svg">
<circle cx="31" cy="31" r="31" fill="#C4C4C4"/>
<path fill-rule="evenodd" clip-rule="evenodd" d="M42.7201 19V29.52C42.7201 36.7825 37.0689 42.67 30.0978 42.67H20L20 19L42.7201 19Z" fill="white" stroke="black" stroke-linecap="round" stroke-linejoin="round"/>
<path fill-rule="evenodd" clip-rule="evenodd" d="M27.5735 42.6701C27.5735 42.6701 32.6224 42.6701 32.6224 37.4101V33.1501C32.6224 32.5978 33.0701 32.1501 33.6224 32.1501H37.6713C37.6713 32.1501 42.7203 32.1501 42.7203 26.8901" fill="white"/>
<path d="M27.5735 42.6701C27.5735 42.6701 32.6224 42.6701 32.6224 37.4101V33.1501C32.6224 32.5978 33.0701 32.1501 33.6224 32.1501H37.6713C37.6713 32.1501 42.7203 32.1501 42.7203 26.8901" stroke="black"/>
</svg>
