<svg width="639" height="639" viewBox="0 0 639 639" fill="none" xmlns="http://www.w3.org/2000/svg">
<path opacity="0.5" d="M417.254 157.973L424.373 145.62C426.442 146.906 428.449 148.223 430.456 149.571C432.087 150.668 433.718 151.828 435.348 152.988L426.662 164.275C423.62 162.112 420.484 160.011 417.254 157.973Z" fill="#C4C4C4"/>
<path opacity="0.5" d="M473.451 211.18L484.772 202.495C485.838 203.969 486.873 205.474 487.877 206.979C489.319 209.111 490.73 211.305 492.11 213.5L479.754 220.617C477.747 217.419 475.646 214.253 473.451 211.18Z" fill="#C4C4C4"/>
<path opacity="0.5" d="M370.184 136.34L373.884 122.576C378.086 123.861 382.288 125.303 386.428 126.84L380.971 140.008C377.427 138.691 373.821 137.437 370.184 136.34Z" fill="#C4C4C4"/>
<path opacity="0.5" d="M394.455 145.62L399.912 132.452C403.926 134.27 407.877 136.246 411.766 138.315L404.647 150.637C401.292 148.881 397.905 147.188 394.455 145.62Z" fill="#C4C4C4"/>
<path opacity="0.5" d="M457.112 191.051L467.179 180.987C470.19 184.216 473.075 187.54 475.897 190.926L464.607 199.611C462.161 196.663 459.684 193.842 457.112 191.051Z" fill="#C4C4C4"/>
<path opacity="0.5" d="M438.265 173.211L446.952 161.893C450.339 164.714 453.663 167.63 456.893 170.64L446.826 180.705C444.035 178.134 441.181 175.625 438.265 173.211Z" fill="#C4C4C4"/>
<path opacity="0.5" d="M344.938 130.32L346.789 116.18C351.147 116.901 355.475 117.779 359.771 118.751L356.071 132.515C352.402 131.699 348.702 130.947 344.938 130.32Z" fill="#C4C4C4"/>
<path opacity="0.5" d="M319.098 127.686V113.452C323.519 113.609 327.941 113.891 332.3 114.298L330.45 128.439C326.718 128.062 322.923 127.812 319.098 127.686Z" fill="#C4C4C4"/>
<path opacity="0.5" d="M505.031 281.787L518.798 278.088C519.77 282.383 520.648 286.71 521.338 291.037L507.195 292.887C506.599 289.155 505.878 285.456 505.031 281.787Z" fill="#C4C4C4"/>
<path opacity="0.5" d="M509.107 307.403L523.251 305.553C523.658 309.911 523.941 314.301 524.097 318.722H509.86C509.703 314.897 509.452 311.134 509.107 307.403Z" fill="#C4C4C4"/>
<path opacity="0.5" d="M497.662 256.924L510.833 251.469C512.37 255.607 513.781 259.777 515.067 263.979L501.3 267.678C500.171 264.041 498.979 260.467 497.662 256.924Z" fill="#C4C4C4"/>
<path opacity="0.5" d="M487.061 233.253L499.385 226.135C501.455 230.023 503.399 233.974 505.218 237.987L492.047 243.442C490.51 239.994 488.817 236.607 487.061 233.253Z" fill="#C4C4C4"/>
</svg>
