<svg width="639" height="639" viewBox="0 0 639 639" fill="none" xmlns="http://www.w3.org/2000/svg">
<path d="M447.098 352.575C445.469 359.043 443.356 365.409 440.735 371.623C434.193 387.106 424.827 401.011 412.89 412.929C400.953 424.872 387.056 434.243 371.606 440.788C355.571 447.562 338.569 451 321.033 451C314.746 451 308.536 450.567 302.402 449.676C303.114 444.659 303.852 439.668 304.565 434.651C294.588 433.276 284.865 430.602 275.524 426.655C261.805 420.848 249.461 412.521 238.873 401.927C228.285 391.334 219.962 379.008 214.159 365.257C208.152 351.021 205.098 335.92 205.098 320.36C205.098 304.801 208.152 289.674 214.159 275.464C219.962 261.738 228.285 249.387 238.873 238.793C249.461 228.199 261.78 219.872 275.524 214.066C289.752 208.056 304.845 205 320.396 205C335.973 205 351.066 208.056 365.269 214.066C378.987 219.872 391.332 228.199 401.92 238.793C412.508 249.387 420.831 261.712 426.634 275.464C432.641 289.699 435.695 304.801 435.695 320.36C435.695 330.063 434.499 339.587 432.157 348.831C437.146 350.079 442.134 351.327 447.098 352.575ZM424.98 276.152C419.253 262.629 411.083 250.482 400.647 240.041C390.212 229.6 378.071 221.425 364.556 215.696C350.557 209.762 335.693 206.783 320.371 206.783C305.049 206.783 290.184 209.788 276.186 215.696C262.671 221.425 250.53 229.6 240.095 240.041C229.659 250.482 221.489 262.629 215.762 276.152C209.832 290.158 206.854 305.03 206.854 320.36C206.854 335.691 209.857 350.563 215.762 364.569C221.489 378.091 229.659 390.238 240.095 400.679C250.53 411.12 262.671 419.295 276.186 425.025C290.184 430.958 305.049 433.938 320.371 433.938C335.693 433.938 350.557 430.933 364.556 425.025C378.071 419.295 390.212 411.12 400.647 400.679C411.083 390.238 419.253 378.091 424.98 364.569C430.91 350.563 433.888 335.691 433.888 320.36C433.888 305.03 430.91 290.158 424.98 276.152Z" fill="#B00E23"/>
</svg>
