<svg width="639" height="639" viewBox="0 0 639 639" fill="none" xmlns="http://www.w3.org/2000/svg">
<path d="M261.023 355.045C263.687 359.408 266.854 363.463 270.408 367.131L260.559 376.939C256.156 372.421 252.255 367.401 248.973 361.957L261.023 355.045Z" fill="#B00E23"/>
<path d="M252.836 302.801C251.639 307.705 250.982 312.802 250.944 318.054H237.04C237.117 311.566 237.928 305.234 239.435 299.21L252.836 302.801Z" fill="#B00E23"/>
<path d="M272.299 369.023C275.968 372.537 280.062 375.665 284.465 378.29L277.513 390.338C272.067 387.094 267.008 383.233 262.489 378.87L272.299 369.023Z" fill="#B00E23"/>
<path d="M253.722 338.596C255.19 343.577 257.198 348.288 259.67 352.728L247.62 359.679C244.531 354.196 242.059 348.365 240.282 342.187L253.722 338.596Z" fill="#B00E23"/>
<path d="M250.904 320.756C251.02 326.008 251.753 331.066 252.989 335.97L239.549 339.561C238.004 333.538 237.154 327.244 237 320.756H250.904V320.756Z" fill="#B00E23"/>
<path d="M286.821 379.642C291.263 382.075 295.975 384.044 300.957 385.473L297.365 398.91C291.224 397.172 285.354 394.74 279.908 391.689L286.821 379.642Z" fill="#B00E23"/>
<path d="M355.606 378.29C360.009 375.665 364.065 372.537 367.772 369.023L377.582 378.831C373.025 383.194 368.004 387.056 362.558 390.299L355.606 378.29Z" fill="#B00E23"/>
<path d="M369.665 367.131C373.218 363.463 376.385 359.408 379.05 355.045L391.1 361.996C387.817 367.44 383.916 372.421 379.513 376.978L369.665 367.131Z" fill="#B00E23"/>
<path d="M392.45 359.64L380.4 352.69C382.872 348.249 384.881 343.538 386.348 338.557L399.789 342.148C398.012 348.326 395.54 354.196 392.45 359.64Z" fill="#B00E23"/>
<path d="M303.545 386.168C308.411 387.365 313.47 388.021 318.684 388.137V402.038C312.235 401.922 305.978 401.111 299.953 399.605L303.545 386.168Z" fill="#B00E23"/>
<path d="M321.389 388.137C326.603 388.021 331.662 387.365 336.528 386.168L340.12 399.605C334.095 401.111 327.838 401.922 321.389 402.038V388.137Z" fill="#B00E23"/>
<path d="M339.152 385.473C344.096 384.044 348.846 382.075 353.288 379.642L360.24 391.689C354.755 394.74 348.924 397.172 342.783 398.91L339.152 385.473Z" fill="#B00E23"/>
<path d="M318.685 249.901C313.394 250.017 308.257 250.712 303.352 251.909L299.761 238.471C305.824 236.965 312.158 236.077 318.685 236V249.901Z" fill="#B00E23"/>
<path d="M379.396 283.572C376.731 279.131 373.603 275 370.05 271.293L379.86 261.485C384.262 266.08 388.163 271.138 391.407 276.621L379.396 283.572Z" fill="#B00E23"/>
<path d="M386.58 300.176C385.151 295.156 383.181 290.406 380.748 285.927L392.798 278.977C395.849 284.499 398.282 290.406 400.02 296.584L386.58 300.176Z" fill="#B00E23"/>
<path d="M368.157 269.4C364.45 265.809 360.356 262.643 355.953 259.94L362.905 247.893C368.389 251.214 373.449 255.114 378.006 259.554L368.157 269.4Z" fill="#B00E23"/>
<path d="M387.083 335.97C388.319 331.105 389.014 326.008 389.169 320.756H403.072C402.956 327.244 402.068 333.538 400.523 339.561L387.083 335.97Z" fill="#B00E23"/>
<path d="M389.169 318.054C389.092 312.802 388.435 307.705 387.276 302.801L400.717 299.21C402.184 305.272 403.034 311.566 403.111 318.054H389.169Z" fill="#B00E23"/>
<path d="M284.119 259.94C279.677 262.643 275.622 265.809 271.914 269.4L262.104 259.554C266.662 255.114 271.721 251.214 277.205 247.893L284.119 259.94Z" fill="#B00E23"/>
<path d="M270.021 271.293C266.468 275 263.34 279.131 260.675 283.572L248.625 276.621C251.908 271.138 255.77 266.041 260.173 261.485L270.021 271.293Z" fill="#B00E23"/>
<path d="M259.322 285.927C256.889 290.406 254.919 295.194 253.49 300.176L240.05 296.584C241.788 290.406 244.221 284.499 247.272 278.977L259.322 285.927Z" fill="#B00E23"/>
<path d="M336.721 251.947C331.816 250.712 326.68 250.017 321.389 249.94V236.039C327.916 236.154 334.25 237.004 340.313 238.51L336.721 251.947Z" fill="#B00E23"/>
<path d="M353.598 258.589C349.118 256.118 344.329 254.11 339.347 252.643L342.938 239.205C349.156 240.981 355.027 243.452 360.55 246.542L353.598 258.589Z" fill="#B00E23"/>
<path d="M300.725 252.643C295.705 254.11 290.916 256.118 286.474 258.589L279.522 246.542C285.045 243.452 290.954 240.981 297.134 239.205L300.725 252.643Z" fill="#B00E23"/>
<path d="M190.489 446C199.471 455.098 209.452 463.198 220.283 470.153L201.937 499.824C188.522 491.255 176.164 481.218 165.098 469.919L190.489 446Z" fill="#B00E23"/>
<path d="M226.066 473.705C237.015 480.132 248.727 485.414 261.056 489.376L251.017 522.804C235.724 517.961 221.223 511.387 207.72 503.375L226.066 473.705Z" fill="#B00E23"/>
<path d="M267.543 491.284C279.666 494.63 292.318 496.713 305.351 497.359L304.324 532.225C288.15 531.491 272.475 528.908 257.504 524.712L267.543 491.284Z" fill="#B00E23"/>
</svg>
