<svg width="639" height="639" viewBox="0 0 639 639" fill="none" xmlns="http://www.w3.org/2000/svg">
<path fill-rule="evenodd" clip-rule="evenodd" d="M320.049 419C375.25 419 420 374.25 420 319.049C420 263.847 375.25 219.098 320.049 219.098C264.847 219.098 220.098 263.847 220.098 319.049C220.098 374.25 264.847 419 320.049 419ZM320.049 412.2C371.495 412.2 413.2 370.495 413.2 319.049C413.2 267.602 371.495 225.897 320.049 225.897C268.602 225.897 226.897 267.602 226.897 319.049C226.897 370.495 268.602 412.2 320.049 412.2Z" fill="#C4C4C4"/>
<path d="M472.598 147C498.831 147 520.098 168.043 520.098 194C520.098 219.957 498.831 241 472.598 241C446.364 241 425.098 219.957 425.098 194C425.098 168.043 446.364 147 472.598 147Z" fill="#C4C4C4"/>
<path d="M449.265 208.415V201.414H490.54V208.415H449.265ZM477.273 203.257C476.462 203.257 475.799 203.92 475.799 204.73C475.799 205.541 476.462 206.204 477.273 206.204C478.084 206.204 478.747 205.541 478.747 204.73C478.747 203.92 478.084 203.257 477.273 203.257ZM481.695 203.257C480.885 203.257 480.221 203.92 480.221 204.73C480.221 205.541 480.885 206.204 481.695 206.204C482.506 206.204 483.169 205.541 483.169 204.73C483.169 203.92 482.506 203.257 481.695 203.257ZM486.118 203.257C485.307 203.257 484.643 203.92 484.643 204.73C484.643 205.541 485.307 206.204 486.118 206.204C486.928 206.204 487.592 205.541 487.592 204.73C487.592 203.92 486.928 203.257 486.118 203.257Z" fill="white"/>
<path d="M449.265 178.203H490.54V199.941H449.265V178.203ZM471.377 197.73H485.749V196.256H471.377V197.73ZM471.377 194.046H480.221V192.572H471.377V194.046ZM471.377 190.361H485.749V188.888H471.377V190.361ZM471.377 186.677H485.749V185.203H471.377V186.677ZM471.377 182.992H485.749V181.519H471.377V182.992ZM454.056 182.992V196.256V197.73H455.53H466.954H468.428V196.256V182.992V181.519H466.954H455.53H454.056V182.992Z" fill="white"/>
<path d="M137.86 193.591C163.912 193.591 185.031 214.706 185.031 240.753C185.031 266.799 163.912 287.914 137.86 287.914C111.808 287.914 90.689 266.799 90.689 240.753C90.689 214.706 111.808 193.591 137.86 193.591Z" fill="white"/>
<path fill-rule="evenodd" clip-rule="evenodd" d="M137.86 284.323C113.791 284.323 94.2805 264.815 94.2805 240.753C94.2805 216.69 113.791 197.183 137.86 197.183C161.929 197.183 181.44 216.69 181.44 240.753C181.44 264.815 161.929 284.323 137.86 284.323ZM87.0977 240.753C87.0977 268.784 109.825 291.506 137.86 291.506C165.895 291.506 188.623 268.784 188.623 240.753C188.623 212.722 165.895 190 137.86 190C109.825 190 87.0977 212.722 87.0977 240.753Z" fill="#B00E23"/>
<path d="M138.045 278.335C158.867 278.335 175.819 261.386 175.819 240.569H178.399C178.399 262.823 160.304 280.914 138.045 280.914C115.786 280.914 97.6914 262.823 97.6914 240.569H100.271C100.271 261.386 117.223 278.335 138.045 278.335Z" fill="white"/>
<path d="M356.269 466C382.321 466 403.44 487.115 403.44 513.161C403.44 539.208 382.321 560.323 356.269 560.323C330.217 560.323 309.098 539.208 309.098 513.161C309.098 487.115 330.217 466 356.269 466Z" fill="#C4C4C4"/>
<path d="M356.263 510.958C359.869 510.958 362.793 508.035 362.793 504.429C362.793 500.823 359.869 497.9 356.263 497.9C352.656 497.9 349.732 500.823 349.732 504.429C349.732 508.035 352.656 510.958 356.263 510.958Z" fill="white"/>
<path d="M369.324 510.595C371.928 510.595 374.04 508.484 374.04 505.88C374.04 503.276 371.928 501.164 369.324 501.164C366.719 501.164 364.607 503.276 364.607 505.88C364.607 508.484 366.719 510.595 369.324 510.595Z" fill="white"/>
<path d="M342.114 510.232C344.718 510.232 346.83 508.121 346.83 505.517C346.83 502.913 344.718 500.802 342.114 500.802C339.509 500.802 337.397 502.913 337.397 505.517C337.397 508.121 339.509 510.232 342.114 510.232Z" fill="white"/>
<path d="M367.872 527.28C367.545 527.788 366.747 528.549 355.9 528.368C344.98 528.187 344.218 527.425 343.928 526.917C341.933 523.471 348.064 512.191 356.263 512.409C364.353 512.626 370.012 523.907 367.872 527.28Z" fill="white"/>
<path d="M348.1 514.875C346.576 513.424 344.69 512.409 342.549 512.336C336.201 512.191 331.412 520.932 332.972 523.617C333.226 524.016 333.77 524.596 342.259 524.741C342.695 521.767 344.871 517.704 348.1 514.875Z" fill="white"/>
<path d="M369.759 512.336C367.546 512.3 365.515 513.316 363.882 514.803C367.039 517.596 369.143 521.658 369.614 524.741C377.922 524.85 378.539 524.306 378.793 523.907C380.425 521.295 376.036 512.518 369.759 512.336Z" fill="white"/>
</svg>
